<?xml version="1.0" encoding="utf-8"?>
<svg viewBox="0 0 192.756 192.756" width="192.756" height="192.756" xmlns="http://www.w3.org/2000/svg">
  <g fill-rule="evenodd" clip-rule="evenodd">
    <path d="M 42.17 149.957 C 35.876 140.867 24.083 120.807 23.055 97.043 C 21.658 64.646 48.467 23.85 96.948 23.385 C 111.65 23.246 116.764 25.715 135.177 32.478 L 123.522 54.619 C 117.419 51.829 110.166 51.216 104.268 51.127 C 80.891 50.77 59.331 72.632 58.953 95.413 C 58.646 114.066 67.112 125.949 69.442 129.913 C 71.774 133.875 70.841 138.07 66.412 139.936 L 42.17 149.957 Z M 79.7 143.663 C 79.138 146.279 80.927 146.519 82.497 145.529 C 91.49 142.773 100.16 138.956 108.604 134.806 C 110.333 133.958 110.482 129.752 109.77 128.281 L 96.483 104.038 C 95.916 101.731 101.272 103.529 103.476 102.638 C 107.778 100.903 111.559 97.372 114.666 94.015 L 135.413 70.938 L 150.564 93.083 L 108.605 110.798 L 127.023 145.763 C 123.138 145.501 117.948 145.523 113.036 146.229 C 108.218 148.594 75.992 162.89 67.937 165.54 C 60.226 168.08 52.37 170.045 44.038 170.007 C 30.931 169.943 15.368 158.642 15.368 146.464 L 15.368 39.236 C 15.368 27.055 25.332 17.091 37.513 17.091 L 155.461 17.091 C 167.642 17.091 177.606 27.055 177.606 39.236 L 177.606 147.392 C 177.606 159.568 167.637 169.632 155.461 169.54 L 124.924 169.302 C 125.778 166.741 126.6 164.165 127.488 161.611 C 129.528 155.736 130.776 149.469 138.212 148.79 C 143.469 148.307 148.787 148.88 154.061 148.557 C 155.189 148.489 156.462 148.359 157.323 147.623 C 158.173 146.904 158.644 145.704 158.724 144.594 C 159.037 140.178 158.49 135.737 158.49 131.309 C 158.49 128.833 158.746 127.756 160.82 126.182 C 162.264 125.086 164.312 124.766 165.483 123.384 C 166.192 122.548 166.266 121.173 165.95 120.12 C 164.987 116.924 163.287 113.994 161.755 111.028 C 159.791 107.227 157.028 103.821 155.461 99.839 C 155.195 99.159 156.017 98.382 156.627 97.974 C 158.189 96.934 160.303 96.83 161.754 95.643 C 162.233 95.251 162.11 94.288 161.754 93.779 L 136.808 60.215 C 135.28 58.71 133.653 63.153 131.915 64.41 C 131.378 64.8 130.693 65.265 130.048 65.108 C 122.574 61.119 112.831 57.877 103.707 57.648 C 83.496 57.144 64.018 77.324 64.313 97.275 C 64.524 111.57 74.096 123.829 78.998 136.67 C 79.834 138.86 79.465 141.332 79.7 143.663 Z M 137.276 109.397 L 136.341 107.067 L 147.762 102.171 L 151.026 108.233 L 137.276 109.397 Z" fill="#b8242c" style=""/>
  </g>
</svg>